<svg width="78" height="68" viewBox="0 0 78 68" fill="none" xmlns="http://www.w3.org/2000/svg">
<g filter="url(#filter0_ddd_44_928)">
<rect x="10" y="12" width="50" height="50" rx="25" fill="white" shape-rendering="crispEdges"/>
<path fill-rule="evenodd" clip-rule="evenodd" d="M27 43H43C43.55 43 44 42.55 44 42C44 41.45 43.55 41 43 41H27C26.45 41 26 41.45 26 42C26 42.55 26.45 43 27 43ZM27 38H43C43.55 38 44 37.55 44 37C44 36.45 43.55 36 43 36H27C26.45 36 26 36.45 26 37C26 37.55 26.45 38 27 38ZM26 32C26 32.55 26.45 33 27 33H43C43.55 33 44 32.55 44 32C44 31.45 43.55 31 43 31H27C26.45 31 26 31.45 26 32Z" fill="#C3CAD9"/>
</g>
<defs>
<filter id="filter0_ddd_44_928" x="-6" y="-5" width="84" height="89" filterUnits="userSpaceOnUse" color-interpolation-filters="sRGB">
<feFlood flood-opacity="0" result="BackgroundImageFix"/>
<feColorMatrix in="SourceAlpha" type="matrix" values="0 0 0 0 0 0 0 0 0 0 0 0 0 0 0 0 0 0 127 0" result="hardAlpha"/>
<feOffset dy="3"/>
<feGaussianBlur stdDeviation="5.5"/>
<feComposite in2="hardAlpha" operator="out"/>
<feColorMatrix type="matrix" values="0 0 0 0 0 0 0 0 0 0 0 0 0 0 0 0 0 0 0.05 0"/>
<feBlend mode="normal" in2="BackgroundImageFix" result="effect1_dropShadow_44_928"/>
<feColorMatrix in="SourceAlpha" type="matrix" values="0 0 0 0 0 0 0 0 0 0 0 0 0 0 0 0 0 0 127 0" result="hardAlpha"/>
<feOffset dx="-5" dy="11"/>
<feGaussianBlur stdDeviation="5.5"/>
<feComposite in2="hardAlpha" operator="out"/>
<feColorMatrix type="matrix" values="0 0 0 0 0 0 0 0 0 0 0 0 0 0 0 0 0 0 0.02 0"/>
<feBlend mode="normal" in2="effect1_dropShadow_44_928" result="effect2_dropShadow_44_928"/>
<feColorMatrix in="SourceAlpha" type="matrix" values="0 0 0 0 0 0 0 0 0 0 0 0 0 0 0 0 0 0 127 0" result="hardAlpha"/>
<feOffset dx="4" dy="-3"/>
<feGaussianBlur stdDeviation="7"/>
<feComposite in2="hardAlpha" operator="out"/>
<feColorMatrix type="matrix" values="0 0 0 0 0 0 0 0 0 0 0 0 0 0 0 0 0 0 0.02 0"/>
<feBlend mode="normal" in2="effect2_dropShadow_44_928" result="effect3_dropShadow_44_928"/>
<feBlend mode="normal" in="SourceGraphic" in2="effect3_dropShadow_44_928" result="shape"/>
</filter>
</defs>
</svg>
