<svg width="708" height="91" viewBox="0 0 708 91" fill="none" xmlns="http://www.w3.org/2000/svg">
<path d="M8.53805 15.7656H5.31805V6.38562H8.60805C10.9041 6.38562 12.3041 7.29562 12.3041 8.87762C12.3041 10.0256 11.6881 10.7676 10.6941 11.0756C11.7721 11.3276 12.4441 11.9716 12.4441 13.1756C12.4441 15.1216 10.7221 15.7656 8.53805 15.7656ZM6.74605 7.57562V10.5016H8.65005C10.2181 10.5016 10.8761 10.0256 10.8761 8.97562C10.8761 8.05163 10.0641 7.57562 8.67805 7.57562H6.74605ZM6.74605 11.6916V14.5756H8.60805C9.89605 14.5756 11.0161 14.3236 11.0161 13.0776C11.0161 12.0556 10.2601 11.6916 8.65005 11.6916H6.74605ZM17.4699 15.9336C15.3979 15.9336 13.8019 14.3096 13.8019 12.3216C13.8019 10.3476 15.4119 8.73762 17.4699 8.73762C19.5419 8.73762 21.1099 10.3616 21.1099 12.3216C21.1099 14.3096 19.5279 15.9336 17.4699 15.9336ZM17.4699 14.6176C18.7439 14.6176 19.7239 13.5816 19.7239 12.3356C19.7239 11.0756 18.7439 10.0396 17.4699 10.0396C16.1819 10.0396 15.1879 11.0756 15.1879 12.3356C15.1879 13.5816 16.1819 14.6176 17.4699 14.6176ZM25.8918 15.9336C23.8198 15.9336 22.2238 14.3096 22.2238 12.3216C22.2238 10.3476 23.8338 8.73762 25.8918 8.73762C27.9638 8.73762 29.5318 10.3616 29.5318 12.3216C29.5318 14.3096 27.9498 15.9336 25.8918 15.9336ZM25.8918 14.6176C27.1658 14.6176 28.1458 13.5816 28.1458 12.3356C28.1458 11.0756 27.1658 10.0396 25.8918 10.0396C24.6038 10.0396 23.6098 11.0756 23.6098 12.3356C23.6098 13.5816 24.6038 14.6176 25.8918 14.6176ZM32.7457 15.7656H31.3597V5.74162H32.7457V11.7616H33.5857C33.6557 11.5936 33.7677 11.4396 33.9077 11.2996L36.1057 8.90562H37.7997L34.8457 12.1256C34.7617 12.1956 34.7197 12.2516 34.7197 12.3216C34.7197 12.3916 34.7617 12.4476 34.8457 12.5176L37.7857 15.7656H36.0777L33.8937 13.3716C33.7537 13.2036 33.6417 13.0356 33.5717 12.8536H32.7457V15.7656ZM41.9283 15.9196C39.8423 15.9196 38.2883 14.4076 38.2883 12.2936C38.2883 10.3196 39.7023 8.70962 41.7603 8.70962C43.8323 8.70962 45.1203 10.2076 45.1203 12.1256V12.6856H39.6323C39.7863 13.8616 40.6823 14.6876 41.9143 14.6876C42.7543 14.6876 43.5103 14.3236 43.9163 13.5676L44.9803 14.1136C44.3783 15.2896 43.2723 15.9196 41.9283 15.9196ZM39.6883 11.7896H43.7343C43.6783 10.6976 42.8803 9.95562 41.7463 9.95562C40.5843 9.95562 39.8283 10.7676 39.6883 11.7896ZM49.995 15.9336C47.909 15.9336 46.341 14.3236 46.341 12.3496C46.341 10.2636 47.853 8.73762 49.925 8.73762C50.849 8.73762 51.689 9.14362 52.249 9.75962L52.263 5.75562H53.649V12.3496C53.649 14.3796 52.067 15.9336 49.995 15.9336ZM49.995 14.6316C51.283 14.6316 52.263 13.5956 52.263 12.3356C52.263 11.0896 51.283 10.0536 49.995 10.0536C48.721 10.0536 47.727 11.0896 47.727 12.3356C47.727 13.5956 48.721 14.6316 49.995 14.6316Z" fill="#100A2C"/>
<path d="M205.35 15.7656L207.912 7.51962C208.192 6.63762 208.878 6.21762 209.662 6.21762C210.46 6.21762 211.146 6.63762 211.426 7.51962L213.988 15.7656H212.532L211.846 13.4696L207.478 13.4836L206.792 15.7656H205.35ZM209.144 7.93962L207.87 12.1816H211.468L210.208 7.93962C210.11 7.64562 209.942 7.50562 209.676 7.50562C209.396 7.50562 209.228 7.64562 209.144 7.93962ZM218.506 15.9196C216.532 15.9476 214.922 14.3096 214.922 12.3216C214.922 10.3476 216.532 8.72362 218.506 8.73762C219.766 8.73762 220.928 9.31162 221.558 10.5436L220.41 11.1876C220.004 10.4456 219.318 10.0536 218.506 10.0536C217.302 10.0536 216.308 11.0756 216.308 12.3216C216.308 13.5816 217.302 14.6176 218.506 14.6176C219.318 14.6176 220.004 14.2256 220.41 13.4836L221.558 14.1136C220.928 15.3596 219.766 15.9196 218.506 15.9196ZM226.121 15.9196C224.147 15.9476 222.537 14.3096 222.537 12.3216C222.537 10.3476 224.147 8.72362 226.121 8.73762C227.381 8.73762 228.543 9.31162 229.173 10.5436L228.025 11.1876C227.619 10.4456 226.933 10.0536 226.121 10.0536C224.917 10.0536 223.923 11.0756 223.923 12.3216C223.923 13.5816 224.917 14.6176 226.121 14.6176C226.933 14.6176 227.619 14.2256 228.025 13.4836L229.173 14.1136C228.543 15.3596 227.381 15.9196 226.121 15.9196ZM233.792 15.9196C231.706 15.9196 230.152 14.4076 230.152 12.2936C230.152 10.3196 231.566 8.70962 233.624 8.70962C235.696 8.70962 236.984 10.2076 236.984 12.1256V12.6856H231.496C231.65 13.8616 232.546 14.6876 233.778 14.6876C234.618 14.6876 235.374 14.3236 235.78 13.5676L236.844 14.1136C236.242 15.2896 235.136 15.9196 233.792 15.9196ZM231.552 11.7896H235.598C235.542 10.6976 234.744 9.95562 233.61 9.95562C232.448 9.95562 231.692 10.7676 231.552 11.7896ZM240.025 18.9156H238.639V12.3216C238.639 10.2776 240.221 8.73762 242.293 8.73762C244.365 8.73762 245.933 10.3616 245.933 12.3216C245.933 14.3936 244.435 15.9336 242.349 15.9336C241.425 15.9336 240.585 15.5276 240.025 14.9116V18.9156ZM242.293 14.6316C243.567 14.6316 244.547 13.5816 244.547 12.3356C244.547 11.0756 243.567 10.0536 242.293 10.0536C241.005 10.0536 240.025 11.0756 240.025 12.3356C240.025 13.5816 241.005 14.6316 242.293 14.6316ZM250.62 15.9476C248.912 15.9476 248.002 14.8696 248.002 13.3016V10.1096H246.644V8.90562H248.002V7.12762H249.388V8.90562H252.02V10.1096H249.388V13.2596C249.388 14.1556 249.92 14.6876 250.746 14.6876C251.194 14.6876 251.684 14.5196 252.02 14.2816V15.5556C251.67 15.7936 251.124 15.9476 250.62 15.9476ZM256.87 15.9196C254.784 15.9196 253.23 14.4076 253.23 12.2936C253.23 10.3196 254.644 8.70962 256.702 8.70962C258.774 8.70962 260.062 10.2076 260.062 12.1256V12.6856H254.574C254.728 13.8616 255.624 14.6876 256.856 14.6876C257.696 14.6876 258.452 14.3236 258.858 13.5676L259.922 14.1136C259.32 15.2896 258.214 15.9196 256.87 15.9196ZM254.63 11.7896H258.676C258.62 10.6976 257.822 9.95562 256.688 9.95562C255.526 9.95562 254.77 10.7676 254.63 11.7896ZM264.937 15.9336C262.851 15.9336 261.283 14.3236 261.283 12.3496C261.283 10.2636 262.795 8.73762 264.867 8.73762C265.791 8.73762 266.631 9.14362 267.191 9.75962L267.205 5.75562H268.591V12.3496C268.591 14.3796 267.009 15.9336 264.937 15.9336ZM264.937 14.6316C266.225 14.6316 267.205 13.5956 267.205 12.3356C267.205 11.0896 266.225 10.0536 264.937 10.0536C263.663 10.0536 262.669 11.0896 262.669 12.3356C262.669 13.5956 263.663 14.6316 264.937 14.6316Z" fill="#100A2C"/>
<path d="M421.742 15.7656H420.314V6.38562H423.296C425.816 6.38562 427.454 7.51962 427.454 9.70362C427.454 11.9436 425.788 13.0636 423.366 13.0636H421.742V15.7656ZM423.338 7.70162H421.742V11.7336H423.338C424.878 11.7336 425.984 11.1316 425.984 9.70362C425.984 8.33162 424.92 7.70162 423.338 7.70162ZM429.856 7.54762C429.352 7.54762 428.946 7.14162 428.946 6.63762C428.946 6.13362 429.352 5.71362 429.856 5.71362C430.36 5.71362 430.752 6.13362 430.752 6.63762C430.752 7.14162 430.36 7.54762 429.856 7.54762ZM429.17 8.90562H430.556V15.7656H429.17V8.90562ZM435.964 15.9196C433.99 15.9476 432.38 14.3096 432.38 12.3216C432.38 10.3476 433.99 8.72362 435.964 8.73762C437.224 8.73762 438.386 9.31162 439.016 10.5436L437.868 11.1876C437.462 10.4456 436.776 10.0536 435.964 10.0536C434.76 10.0536 433.766 11.0756 433.766 12.3216C433.766 13.5816 434.76 14.6176 435.964 14.6176C436.776 14.6176 437.462 14.2256 437.868 13.4836L439.016 14.1136C438.386 15.3596 437.224 15.9196 435.964 15.9196ZM442.095 15.7656H440.709V5.74162H442.095V11.7616H442.935C443.005 11.5936 443.117 11.4396 443.257 11.2996L445.455 8.90562H447.149L444.195 12.1256C444.111 12.1956 444.069 12.2516 444.069 12.3216C444.069 12.3916 444.111 12.4476 444.195 12.5176L447.135 15.7656H445.427L443.243 13.3716C443.103 13.2036 442.991 13.0356 442.921 12.8536H442.095V15.7656ZM451.277 15.9196C449.191 15.9196 447.637 14.4076 447.637 12.2936C447.637 10.3196 449.051 8.70962 451.109 8.70962C453.181 8.70962 454.469 10.2076 454.469 12.1256V12.6856H448.981C449.135 13.8616 450.031 14.6876 451.263 14.6876C452.103 14.6876 452.859 14.3236 453.265 13.5676L454.329 14.1136C453.727 15.2896 452.621 15.9196 451.277 15.9196ZM449.037 11.7896H453.083C453.027 10.6976 452.229 9.95562 451.095 9.95562C449.933 9.95562 449.177 10.7676 449.037 11.7896ZM459.344 15.9336C457.258 15.9336 455.69 14.3236 455.69 12.3496C455.69 10.2636 457.202 8.73762 459.274 8.73762C460.198 8.73762 461.038 9.14362 461.598 9.75962L461.612 5.75562H462.998V12.3496C462.998 14.3796 461.416 15.9336 459.344 15.9336ZM459.344 14.6316C460.632 14.6316 461.612 13.5956 461.612 12.3356C461.612 11.0896 460.632 10.0536 459.344 10.0536C458.07 10.0536 457.076 11.0896 457.076 12.3356C457.076 13.5956 458.07 14.6316 459.344 14.6316ZM472.252 14.5896C473.526 14.5896 474.226 13.4836 474.226 12.2096V8.90562H475.612V12.3776C475.612 14.3656 474.408 15.9336 472.252 15.9336C470.124 15.9336 468.92 14.3516 468.92 12.3636V8.90562H470.306V12.2236C470.306 13.4836 470.992 14.5896 472.252 14.5896ZM478.934 18.9156H477.548V12.3216C477.548 10.2776 479.13 8.73762 481.202 8.73762C483.274 8.73762 484.842 10.3616 484.842 12.3216C484.842 14.3936 483.344 15.9336 481.258 15.9336C480.334 15.9336 479.494 15.5276 478.934 14.9116V18.9156ZM481.202 14.6316C482.476 14.6316 483.456 13.5816 483.456 12.3356C483.456 11.0756 482.476 10.0536 481.202 10.0536C479.914 10.0536 478.934 11.0756 478.934 12.3356C478.934 13.5816 479.914 14.6316 481.202 14.6316Z" fill="#100A2C" fill-opacity="0.3"/>
<path d="M648.469 11.0336C648.469 13.9736 646.271 15.7656 643.373 15.7656H640.195V6.38562H643.443C646.453 6.38562 648.469 8.24762 648.469 11.0336ZM646.999 11.0336C646.999 9.04562 645.543 7.70162 643.443 7.70162H641.623V14.4636H643.373C645.417 14.4636 646.999 13.1756 646.999 11.0336ZM653.385 15.9196C651.299 15.9196 649.745 14.4076 649.745 12.2936C649.745 10.3196 651.159 8.70962 653.217 8.70962C655.289 8.70962 656.577 10.2076 656.577 12.1256V12.6856H651.089C651.243 13.8616 652.139 14.6876 653.371 14.6876C654.211 14.6876 654.967 14.3236 655.373 13.5676L656.437 14.1136C655.835 15.2896 654.729 15.9196 653.385 15.9196ZM651.145 11.7896H655.191C655.135 10.6976 654.337 9.95562 653.203 9.95562C652.041 9.95562 651.285 10.7676 651.145 11.7896ZM658.512 5.75562H659.898V15.7656H658.512V5.75562ZM663.121 7.54762C662.617 7.54762 662.211 7.14162 662.211 6.63762C662.211 6.13362 662.617 5.71362 663.121 5.71362C663.625 5.71362 664.017 6.13362 664.017 6.63762C664.017 7.14162 663.625 7.54762 663.121 7.54762ZM662.435 8.90562H663.821V15.7656H662.435V8.90562ZM667.437 14.8696L665.225 8.90562H666.709L668.725 14.4916C668.739 14.5616 668.795 14.6316 668.879 14.6316C668.977 14.6316 669.033 14.5616 669.047 14.4916L671.063 8.90562H672.533L670.307 14.8696C670.041 15.5836 669.551 15.9476 668.879 15.9476C668.235 15.9476 667.703 15.5836 667.437 14.8696ZM676.777 15.9196C674.691 15.9196 673.137 14.4076 673.137 12.2936C673.137 10.3196 674.551 8.70962 676.609 8.70962C678.681 8.70962 679.969 10.2076 679.969 12.1256V12.6856H674.481C674.635 13.8616 675.531 14.6876 676.763 14.6876C677.603 14.6876 678.359 14.3236 678.765 13.5676L679.829 14.1136C679.227 15.2896 678.121 15.9196 676.777 15.9196ZM674.537 11.7896H678.583C678.527 10.6976 677.729 9.95562 676.595 9.95562C675.433 9.95562 674.677 10.7676 674.537 11.7896ZM683.01 15.7656H681.624V11.6776C681.624 10.0116 682.576 8.76562 684.368 8.76562C684.802 8.76562 685.25 8.84962 685.6 9.01762V10.3896C685.264 10.1936 684.872 10.0956 684.494 10.0956C683.57 10.0956 683.01 10.7256 683.01 11.7336V15.7656ZM689.82 15.9196C687.734 15.9196 686.18 14.4076 686.18 12.2936C686.18 10.3196 687.594 8.70962 689.652 8.70962C691.724 8.70962 693.012 10.2076 693.012 12.1256V12.6856H687.524C687.678 13.8616 688.574 14.6876 689.806 14.6876C690.646 14.6876 691.402 14.3236 691.808 13.5676L692.872 14.1136C692.27 15.2896 691.164 15.9196 689.82 15.9196ZM687.58 11.7896H691.626C691.57 10.6976 690.772 9.95562 689.638 9.95562C688.476 9.95562 687.72 10.7676 687.58 11.7896ZM697.887 15.9336C695.801 15.9336 694.233 14.3236 694.233 12.3496C694.233 10.2636 695.745 8.73762 697.817 8.73762C698.741 8.73762 699.581 9.14362 700.141 9.75962L700.155 5.75562H701.541V12.3496C701.541 14.3796 699.959 15.9336 697.887 15.9336ZM697.887 14.6316C699.175 14.6316 700.155 13.5956 700.155 12.3356C700.155 11.0896 699.175 10.0536 697.887 10.0536C696.613 10.0536 695.619 11.0896 695.619 12.3356C695.619 13.5956 696.613 14.6316 697.887 14.6316Z" fill="#100A2C" fill-opacity="0.3"/>
<circle cx="15.3749" cy="46.0967" r="15.1027" fill="#100A2C"/>
<path d="M11.1089 46.0248L13.6475 48.5634L19.9941 42.2168" stroke="white" stroke-width="0.87148" stroke-linecap="round" stroke-linejoin="round"/>
<rect x="30.4775" y="45.0831" width="186.503" height="2.02721" fill="#100A2C"/>
<circle cx="231.509" cy="46.0058" r="14.4697" stroke="#100A2C" stroke-width="1.26742"/>
<circle cx="231.505" cy="46.0054" r="5.12946" fill="#100A2C"/>
<circle cx="231.507" cy="46.0052" r="14.4697" stroke="#100A2C" stroke-width="1.26742"/>
<circle cx="231.503" cy="46.005" r="5.12946" fill="#100A2C"/>
<circle cx="231.268" cy="46.0961" r="15.1027" fill="#100A2C"/>
<path d="M227.001 46.0241L229.54 48.5628L235.886 42.2162" stroke="white" stroke-width="0.87148" stroke-linecap="round" stroke-linejoin="round"/>
<path d="M4.90063 72.5193V74.2931" stroke="#777E90" stroke-width="1.11497" stroke-miterlimit="10" stroke-linecap="round" stroke-linejoin="round"/>
<path d="M9.5293 72.5193V74.2931" stroke="#777E90" stroke-width="1.11497" stroke-miterlimit="10" stroke-linecap="round" stroke-linejoin="round"/>
<path d="M2.29541 76.7103H12.1352" stroke="#777E90" stroke-width="1.11497" stroke-miterlimit="10" stroke-linecap="round" stroke-linejoin="round"/>
<path d="M12.4291 76.3605V81.3863C12.4291 83.1601 11.5609 84.3427 9.53506 84.3427H4.90456C2.87872 84.3427 2.0105 83.1601 2.0105 81.3863V76.3605C2.0105 74.5867 2.87872 73.4042 4.90456 73.4042H9.53506C11.5609 73.4042 12.4291 74.5867 12.4291 76.3605Z" stroke="#777E90" stroke-width="1.11497" stroke-miterlimit="10" stroke-linecap="round" stroke-linejoin="round"/>
<path d="M9.35214 79.435H9.35734" stroke="#777E90" stroke-width="1.11497" stroke-linecap="round" stroke-linejoin="round"/>
<path d="M9.35214 81.2088H9.35734" stroke="#777E90" stroke-width="1.11497" stroke-linecap="round" stroke-linejoin="round"/>
<path d="M7.21421 79.435H7.2194" stroke="#777E90" stroke-width="1.11497" stroke-linecap="round" stroke-linejoin="round"/>
<path d="M7.21421 81.2088H7.2194" stroke="#777E90" stroke-width="1.11497" stroke-linecap="round" stroke-linejoin="round"/>
<path d="M5.07212 79.435H5.07731" stroke="#777E90" stroke-width="1.11497" stroke-linecap="round" stroke-linejoin="round"/>
<path d="M5.07212 81.2088H5.07731" stroke="#777E90" stroke-width="1.11497" stroke-linecap="round" stroke-linejoin="round"/>
<path d="M23.9708 74.9995H22.7468V68.3755C22.7468 68.3275 22.7348 68.2915 22.6868 68.2915C22.6268 68.2915 22.5788 68.3275 22.5308 68.3635L20.6828 69.4075L20.1308 68.2555L22.1948 67.1155C22.5068 66.9355 22.8308 66.8155 23.1428 66.8155C23.6468 66.8155 23.9708 67.1515 23.9708 67.7515V74.9995ZM28.3437 75.1555C26.6277 75.1555 25.4397 73.9315 25.4397 72.4075C25.4397 71.6515 25.7277 71.0035 26.1717 70.2115L28.0197 66.9595H29.3997L27.8397 69.6955C28.0437 69.6475 28.2597 69.6235 28.4637 69.6235C30.0117 69.6235 31.2477 70.6915 31.2477 72.2875C31.2477 73.9435 30.0117 75.1555 28.3437 75.1555ZM28.3317 74.0635C29.3037 74.0635 30.0597 73.3195 30.0597 72.3475C30.0597 71.3995 29.3037 70.6555 28.3317 70.6555C27.2757 70.6555 26.6037 71.5435 26.6037 72.3835C26.6037 73.3555 27.3717 74.0635 28.3317 74.0635ZM33.136 70.5715C32.704 70.5715 32.356 70.2115 32.356 69.7795C32.356 69.3475 32.704 69.0115 33.136 69.0115C33.568 69.0115 33.916 69.3475 33.916 69.7795C33.916 70.2115 33.568 70.5715 33.136 70.5715ZM33.136 75.1075C32.704 75.1075 32.356 74.7595 32.356 74.3275C32.356 73.8955 32.704 73.5595 33.136 73.5595C33.568 73.5595 33.916 73.8955 33.916 74.3275C33.916 74.7595 33.568 75.1075 33.136 75.1075ZM38.4044 75.1555C36.4844 75.1555 35.1764 73.2955 35.1764 70.9675C35.1764 68.6155 36.4844 66.8155 38.4044 66.8155C40.3244 66.8155 41.6324 68.6155 41.6324 70.9675C41.6324 73.2955 40.3244 75.1555 38.4044 75.1555ZM38.4044 73.8955C39.5204 73.8955 40.3724 72.5875 40.3724 70.9675C40.3724 69.3235 39.5324 68.0635 38.4044 68.0635C37.3004 68.0635 36.4364 69.3235 36.4364 70.9675C36.4364 72.5875 37.2764 73.8955 38.4044 73.8955ZM45.8257 75.1555C43.9057 75.1555 42.5977 73.2955 42.5977 70.9675C42.5977 68.6155 43.9057 66.8155 45.8257 66.8155C47.7457 66.8155 49.0537 68.6155 49.0537 70.9675C49.0537 73.2955 47.7457 75.1555 45.8257 75.1555ZM45.8257 73.8955C46.9417 73.8955 47.7937 72.5875 47.7937 70.9675C47.7937 69.3235 46.9537 68.0635 45.8257 68.0635C44.7217 68.0635 43.8577 69.3235 43.8577 70.9675C43.8577 72.5875 44.6977 73.8955 45.8257 73.8955ZM50.7237 77.2435H49.9317L50.2797 74.9635C50.0877 74.8195 49.9557 74.5915 49.9557 74.3275C49.9557 73.8955 50.3037 73.5595 50.7357 73.5595C51.1677 73.5595 51.5157 73.8955 51.5157 74.3275C51.5157 74.4235 51.5037 74.5195 51.4677 74.6035L50.7237 77.2435ZM61.502 66.9595V68.0875H59.03V74.9995H57.806V68.0875H55.346V66.9595H61.502ZM63.5902 74.9995H62.4022V66.4195H63.5902V69.7795C64.0462 69.2875 64.7542 68.9755 65.5462 68.9755C67.2742 68.9755 68.2462 70.1275 68.2462 71.9275V74.9995H67.0582V72.0475C67.0582 71.0035 66.4822 70.1035 65.3662 70.1035C64.3222 70.1035 63.5902 70.9435 63.5902 72.0835V74.9995ZM72.3914 73.9915C73.4834 73.9915 74.0834 73.0435 74.0834 71.9515V69.1195H75.2714V72.0955C75.2714 73.7995 74.2394 75.1435 72.3914 75.1435C70.5674 75.1435 69.5354 73.7875 69.5354 72.0835V69.1195H70.7234V71.9635C70.7234 73.0435 71.3114 73.9915 72.3914 73.9915ZM77.3299 77.2435H76.5379L76.8859 74.9635C76.6939 74.8195 76.5619 74.5915 76.5619 74.3275C76.5619 73.8955 76.9099 73.5595 77.3419 73.5595C77.7739 73.5595 78.1219 73.8955 78.1219 74.3275C78.1219 74.4235 78.1099 74.5195 78.0739 74.6035L77.3299 77.2435ZM83.4762 67.9555C83.0442 67.9555 82.6962 67.6075 82.6962 67.1755C82.6962 66.7435 83.0442 66.3835 83.4762 66.3835C83.9082 66.3835 84.2442 66.7435 84.2442 67.1755C84.2442 67.6075 83.9082 67.9555 83.4762 67.9555ZM82.8762 69.1195H84.0642V75.4915C84.0642 76.8595 83.2242 77.8075 81.7122 77.8075L81.6642 76.6795C82.4562 76.6795 82.8762 76.1755 82.8762 75.4555V69.1195ZM88.2132 73.9915C89.3052 73.9915 89.9052 73.0435 89.9052 71.9515V69.1195H91.0932V72.0955C91.0932 73.7995 90.0612 75.1435 88.2132 75.1435C86.3892 75.1435 85.3572 73.7875 85.3572 72.0835V69.1195H86.5452V71.9635C86.5452 73.0435 87.1332 73.9915 88.2132 73.9915ZM95.3088 70.1155C94.1568 70.1155 93.5808 71.0635 93.5808 72.1555V74.9995H92.3928V72.0355C92.3928 70.3195 93.4128 68.9755 95.3088 68.9755C97.2288 68.9755 98.2728 70.3195 98.2728 72.0235V74.9995H97.0848V72.1675C97.0848 71.0635 96.4848 70.1155 95.3088 70.1155ZM23.9708 89.9995H22.7468V83.3755C22.7468 83.3275 22.7348 83.2915 22.6868 83.2915C22.6268 83.2915 22.5788 83.3275 22.5308 83.3635L20.6828 84.4075L20.1308 83.2555L22.1948 82.1155C22.5068 81.9355 22.8308 81.8155 23.1428 81.8155C23.6468 81.8155 23.9708 82.1515 23.9708 82.7515V89.9995ZM28.3437 90.1555C26.6277 90.1555 25.4397 88.9315 25.4397 87.4075C25.4397 86.6515 25.7277 86.0035 26.1717 85.2115L28.0197 81.9595H29.3997L27.8397 84.6955C28.0437 84.6475 28.2597 84.6235 28.4637 84.6235C30.0117 84.6235 31.2477 85.6915 31.2477 87.2875C31.2477 88.9435 30.0117 90.1555 28.3437 90.1555ZM28.3317 89.0635C29.3037 89.0635 30.0597 88.3195 30.0597 87.3475C30.0597 86.3995 29.3037 85.6555 28.3317 85.6555C27.2757 85.6555 26.6037 86.5435 26.6037 87.3835C26.6037 88.3555 27.3717 89.0635 28.3317 89.0635Z" fill="#100A2C"/>
<path d="M213.969 74.9994H212.745V68.3754C212.745 68.3274 212.733 68.2914 212.685 68.2914C212.625 68.2914 212.577 68.3274 212.529 68.3634L210.681 69.4074L210.129 68.2554L212.193 67.1154C212.505 66.9354 212.829 66.8154 213.141 66.8154C213.645 66.8154 213.969 67.1514 213.969 67.7514V74.9994ZM218.342 75.1554C216.626 75.1554 215.438 73.9314 215.438 72.4074C215.438 71.6514 215.726 71.0034 216.17 70.2114L218.018 66.9594H219.398L217.838 69.6954C218.042 69.6474 218.258 69.6234 218.462 69.6234C220.01 69.6234 221.246 70.6914 221.246 72.2874C221.246 73.9434 220.01 75.1554 218.342 75.1554ZM218.33 74.0634C219.302 74.0634 220.058 73.3194 220.058 72.3474C220.058 71.3994 219.302 70.6554 218.33 70.6554C217.274 70.6554 216.602 71.5434 216.602 72.3834C216.602 73.3554 217.37 74.0634 218.33 74.0634ZM223.135 70.5714C222.703 70.5714 222.355 70.2114 222.355 69.7794C222.355 69.3474 222.703 69.0114 223.135 69.0114C223.567 69.0114 223.915 69.3474 223.915 69.7794C223.915 70.2114 223.567 70.5714 223.135 70.5714ZM223.135 75.1074C222.703 75.1074 222.355 74.7594 222.355 74.3274C222.355 73.8954 222.703 73.5594 223.135 73.5594C223.567 73.5594 223.915 73.8954 223.915 74.3274C223.915 74.7594 223.567 75.1074 223.135 75.1074ZM228.403 75.1554C226.483 75.1554 225.175 73.2954 225.175 70.9674C225.175 68.6154 226.483 66.8154 228.403 66.8154C230.323 66.8154 231.631 68.6154 231.631 70.9674C231.631 73.2954 230.323 75.1554 228.403 75.1554ZM228.403 73.8954C229.519 73.8954 230.371 72.5874 230.371 70.9674C230.371 69.3234 229.531 68.0634 228.403 68.0634C227.299 68.0634 226.435 69.3234 226.435 70.9674C226.435 72.5874 227.275 73.8954 228.403 73.8954ZM238.02 74.9994H233.772C233.04 74.9994 232.668 74.5794 232.668 74.0634C232.668 73.6914 232.836 73.3554 233.184 73.0554L235.572 70.9314C236.232 70.3314 236.58 69.8874 236.58 69.2154C236.58 68.4954 235.968 67.9794 235.176 67.9794C234.396 67.9794 233.736 68.4594 233.376 69.1914L232.428 68.6634C232.956 67.5714 233.952 66.8154 235.26 66.8154C236.748 66.8154 237.804 67.8354 237.804 69.1074C237.804 70.0794 237.372 70.8234 236.616 71.4954L234.24 73.6074C234.144 73.7034 234.096 73.7394 234.096 73.8114C234.096 73.8474 234.12 73.8714 234.156 73.8714H238.02V74.9994ZM240.007 77.2434H239.215L239.563 74.9634C239.371 74.8194 239.239 74.5914 239.239 74.3274C239.239 73.8954 239.587 73.5594 240.019 73.5594C240.451 73.5594 240.799 73.8954 240.799 74.3274C240.799 74.4234 240.787 74.5194 240.751 74.6034L240.007 77.2434ZM250.786 66.9594V68.0874H248.314V74.9994H247.09V68.0874H244.63V66.9594H250.786ZM252.874 74.9994H251.686V66.4194H252.874V69.7794C253.33 69.2874 254.038 68.9754 254.83 68.9754C256.558 68.9754 257.53 70.1274 257.53 71.9274V74.9994H256.342V72.0474C256.342 71.0034 255.766 70.1034 254.65 70.1034C253.606 70.1034 252.874 70.9434 252.874 72.0834V74.9994ZM261.675 73.9914C262.767 73.9914 263.367 73.0434 263.367 71.9514V69.1194H264.555V72.0954C264.555 73.7994 263.523 75.1434 261.675 75.1434C259.851 75.1434 258.819 73.7874 258.819 72.0834V69.1194H260.007V71.9634C260.007 73.0434 260.595 73.9914 261.675 73.9914ZM266.614 77.2434H265.822L266.17 74.9634C265.978 74.8194 265.846 74.5914 265.846 74.3274C265.846 73.8954 266.194 73.5594 266.626 73.5594C267.058 73.5594 267.406 73.8954 267.406 74.3274C267.406 74.4234 267.394 74.5194 267.358 74.6034L266.614 77.2434ZM272.76 67.9554C272.328 67.9554 271.98 67.6074 271.98 67.1754C271.98 66.7434 272.328 66.3834 272.76 66.3834C273.192 66.3834 273.528 66.7434 273.528 67.1754C273.528 67.6074 273.192 67.9554 272.76 67.9554ZM272.16 69.1194H273.348V75.4914C273.348 76.8594 272.508 77.8074 270.996 77.8074L270.948 76.6794C271.74 76.6794 272.16 76.1754 272.16 75.4554V69.1194ZM277.497 73.9914C278.589 73.9914 279.189 73.0434 279.189 71.9514V69.1194H280.377V72.0954C280.377 73.7994 279.345 75.1434 277.497 75.1434C275.673 75.1434 274.641 73.7874 274.641 72.0834V69.1194H275.829V71.9634C275.829 73.0434 276.417 73.9914 277.497 73.9914ZM284.593 70.1154C283.441 70.1154 282.865 71.0634 282.865 72.1554V74.9994H281.677V72.0354C281.677 70.3194 282.697 68.9754 284.593 68.9754C286.513 68.9754 287.557 70.3194 287.557 72.0234V74.9994H286.369V72.1674C286.369 71.0634 285.769 70.1154 284.593 70.1154ZM213.969 89.9994H212.745V83.3754C212.745 83.3274 212.733 83.2914 212.685 83.2914C212.625 83.2914 212.577 83.3274 212.529 83.3634L210.681 84.4074L210.129 83.2554L212.193 82.1154C212.505 81.9354 212.829 81.8154 213.141 81.8154C213.645 81.8154 213.969 82.1514 213.969 82.7514V89.9994ZM218.342 90.1554C216.626 90.1554 215.438 88.9314 215.438 87.4074C215.438 86.6514 215.726 86.0034 216.17 85.2114L218.018 81.9594H219.398L217.838 84.6954C218.042 84.6474 218.258 84.6234 218.462 84.6234C220.01 84.6234 221.246 85.6914 221.246 87.2874C221.246 88.9434 220.01 90.1554 218.342 90.1554ZM218.33 89.0634C219.302 89.0634 220.058 88.3194 220.058 87.3474C220.058 86.3994 219.302 85.6554 218.33 85.6554C217.274 85.6554 216.602 86.5434 216.602 87.3834C216.602 88.3554 217.37 89.0634 218.33 89.0634Z" fill="#100A2C"/>
<rect x="246.578" y="45.1838" width="191.571" height="2.02721" fill="#100A2C"/>
<circle cx="452.476" cy="46.0052" r="14.4697" stroke="#100A2C" stroke-width="1.26742"/>
<circle cx="452.471" cy="46.005" r="5.02385" fill="#100A2C" stroke="#100A2C" stroke-width="0.211237"/>
<rect x="467.579" y="45.0928" width="191.571" height="2.02721" fill="#F2F3F5"/>
<circle cx="674.49" cy="46.0052" r="14.4697" stroke="#100A2C" stroke-opacity="0.3" stroke-width="1.26742"/>
<circle cx="674.485" cy="46.005" r="5.12946" fill="#F2F3F5"/>
</svg>
