<svg width="77" height="68" viewBox="0 0 77 68" fill="none" xmlns="http://www.w3.org/2000/svg">
<g filter="url(#filter0_ddd_44_930)">
<rect x="16" y="12" width="50" height="50" rx="25" fill="white" shape-rendering="crispEdges"/>
<path fill-rule="evenodd" clip-rule="evenodd" d="M41 27C35.48 27 31 31.48 31 37C31 42.52 35.48 47 41 47C46.52 47 51 42.52 51 37C51 31.48 46.52 27 41 27ZM41 30C42.66 30 44 31.34 44 33C44 34.66 42.66 36 41 36C39.34 36 38 34.66 38 33C38 31.34 39.34 30 41 30ZM41 44.2C38.5 44.2 36.29 42.92 35 40.98C35.03 38.99 39 37.9 41 37.9C42.99 37.9 46.97 38.99 47 40.98C45.71 42.92 43.5 44.2 41 44.2Z" fill="#C3CAD9"/>
</g>
<defs>
<filter id="filter0_ddd_44_930" x="0" y="-5" width="84" height="89" filterUnits="userSpaceOnUse" color-interpolation-filters="sRGB">
<feFlood flood-opacity="0" result="BackgroundImageFix"/>
<feColorMatrix in="SourceAlpha" type="matrix" values="0 0 0 0 0 0 0 0 0 0 0 0 0 0 0 0 0 0 127 0" result="hardAlpha"/>
<feOffset dy="3"/>
<feGaussianBlur stdDeviation="5.5"/>
<feComposite in2="hardAlpha" operator="out"/>
<feColorMatrix type="matrix" values="0 0 0 0 0 0 0 0 0 0 0 0 0 0 0 0 0 0 0.02 0"/>
<feBlend mode="normal" in2="BackgroundImageFix" result="effect1_dropShadow_44_930"/>
<feColorMatrix in="SourceAlpha" type="matrix" values="0 0 0 0 0 0 0 0 0 0 0 0 0 0 0 0 0 0 127 0" result="hardAlpha"/>
<feOffset dx="-5" dy="11"/>
<feGaussianBlur stdDeviation="5.5"/>
<feComposite in2="hardAlpha" operator="out"/>
<feColorMatrix type="matrix" values="0 0 0 0 0 0 0 0 0 0 0 0 0 0 0 0 0 0 0.02 0"/>
<feBlend mode="normal" in2="effect1_dropShadow_44_930" result="effect2_dropShadow_44_930"/>
<feColorMatrix in="SourceAlpha" type="matrix" values="0 0 0 0 0 0 0 0 0 0 0 0 0 0 0 0 0 0 127 0" result="hardAlpha"/>
<feOffset dx="4" dy="-3"/>
<feGaussianBlur stdDeviation="7"/>
<feComposite in2="hardAlpha" operator="out"/>
<feColorMatrix type="matrix" values="0 0 0 0 0 0 0 0 0 0 0 0 0 0 0 0 0 0 0.02 0"/>
<feBlend mode="normal" in2="effect2_dropShadow_44_930" result="effect3_dropShadow_44_930"/>
<feBlend mode="normal" in="SourceGraphic" in2="effect3_dropShadow_44_930" result="shape"/>
</filter>
</defs>
</svg>
